<?xml version="1.0" encoding="UTF-8"?>
<svg id="Layer_1" xmlns="http://www.w3.org/2000/svg" viewBox="0 0 331.08 174.78">
  <g id="Icon">
    <path d="M224.29,54.78c0,11.34.21,22.69-.11,34.02-.18,6.34-2.22,12.35-4.93,18.14-2.66,5.69-6.33,10.64-10.19,15.54-8.6,10.92-24.54,14.61-36.79,7.96-3.01-1.63-5.53-4.17-8.35-6.36-3.47,4.38-8.36,7.65-14.37,8.89-10.49,2.15-19.52-1.08-26.98-8.44-11.45-11.3-17.38-25.18-17.97-41.24-.3-7.99-.15-16-.23-24.01-.02-1.8-.15-3.6-.26-5.96-3.37,3.18-6.35,5.87-9.2,8.7-3.71,3.69-7.37,7.43-10.96,11.24-2.05,2.17-3.92,4.5-5.85,6.78-1.76,2.08-3.86,2.65-6.27,1.32-1.35-.75-2.65-1.78-3.63-2.97-17.05-20.73-13.13-47.29,2.4-63.41,7.02-7.29,15.53-11.75,26.21-11.48,13.63.34,27.27-.07,40.9.23,5.86.13,11.21-1.81,16.79-2.78,9.22-1.61,18.34-1.14,27.42,1.26,3.1.82,6.37,1.4,9.56,1.43,14.78.14,29.55,0,44.33.05,7.38.03,13.71,3.16,19.15,7.77,16.32,13.81,20.63,33.84,14.1,52.48-1.99,5.69-5.07,10.96-9.27,15.45-3.19,3.41-6.32,3.53-9.72.08-6.18-6.26-12.22-12.64-18.36-18.93-2.05-2.1-4.21-4.09-6.32-6.13-.36.12-.72.25-1.09.37ZM160.26,114.37c-6.68-7.32-13.54-14.17-19.6-21.65-7.54-9.31-4.9-21.78,5.29-27.89,5.03-3.02,11.31-2.69,15.78.91,1.06.85,1.91,1.95,2.91,2.99.65-.6,1.15-1.08,1.67-1.54,6.11-5.48,13.95-5.73,20.15-.8,8.31,6.6,8.21,16.56,4.71,21.92-2.81,4.3-6.45,8.07-9.85,11.96-3.64,4.16-7.48,8.14-11.13,12.29-.5.57-.85,2.06-.5,2.49,1.98,2.41,3.84,5.19,6.4,6.8,7.42,4.65,16.78,3.46,24.1-3.04,9.23-8.2,13.67-19.11,14.31-31.05.77-14.38.33-28.83.05-43.25-.05-2.68-1.42-5.64-2.99-7.91-2.33-3.37-5.43-6.2-8.13-9.33-8.94-10.39-20.24-15.98-33.89-17-10.96-.82-21.46.72-30.89,6.58-7.45,4.63-13.97,10.33-19.47,17.35-2.64,3.38-4.63,6.7-4.64,10.8,0,14.85-.29,29.73.59,44.54.67,11.28,5.53,21.17,14.38,28.69,3.75,3.19,8.02,5.42,13.01,5.77,7.98.57,13.39-3.68,17.72-9.63ZM74.3,70.85c18.59-18.21,35.08-38,51.66-57.85-2.52-.16-4.85.11-7.19.13-7.56.05-15.13.15-22.69-.03-9.67-.23-16.26,5.35-22.33,11.7-2.04,2.14-3.56,5.02-4.61,7.82-2.97,7.93-2.94,16.17-1.59,24.41.85,5.18,3.1,9.78,6.74,13.82ZM253.78,71.37c.95-.8,1.19-.94,1.34-1.14,11.52-15.05,8.58-40.67-5.95-51.12-4.91-3.53-9.83-5.88-15.93-5.75-8.96.2-17.92.23-26.87.34-.64,0-1.28.09-2.76.21,17,19.46,33.53,38.39,50.18,57.45ZM153.04,71.8c-5.42.71-9.09,5.31-7.5,10.12.85,2.58,2.3,5.15,4.07,7.22,4.17,4.86,8.74,9.39,13.07,14.12,1.52,1.67,2.59,1.47,4.05-.11,3.78-4.05,7.83-7.85,11.51-11.98,1.95-2.19,3.7-4.7,4.91-7.35,1.49-3.26-.07-7.42-2.96-9.62-2.66-2.02-5.72-2-8.99.4-1.53,1.12-2.85,2.59-4.06,4.06-1.73,2.1-3.34,2.28-5.15.24-1.17-1.31-2.06-2.93-3.42-3.98-1.66-1.28-3.66-2.11-5.52-3.13Z"/>
    <path d="M142.99,47.02c0,3.96-2.92,6.77-7.05,6.79-4.37.03-7.78-3.23-7.81-7.44-.02-3.85,3.32-7.36,7.03-7.38,4.51-.03,7.83,3.38,7.82,8.03Z"/>
    <path d="M193.28,39.56c3.88.05,6.88,3.3,6.87,7.44-.01,4.1-3.17,7.5-6.9,7.42-4.02-.08-7.08-3.68-7.03-8.27.03-3.63,3.27-6.64,7.07-6.59Z"/>
    <g>
      <path d="M19.11,152.57H4.79v6.77h11.27l-.47,4.18H4.79v10.91H0v-26.28h19.62l-.5,4.43Z" style="fill: #231f20;"/>
      <path d="M44.06,174.42h-19.37v-26.28h19.62l-.5,4.43h-14.29v5h11.23l-.47,4.18h-10.76v8.35h15.01l-.47,4.32Z" style="fill: #231f20;"/>
      <path d="M48.1,148.14h21.96l-.5,4.43h-7.99v21.85h-4.82v-21.85h-8.64v-4.43Z" style="fill: #231f20;"/>
      <path d="M98.85,156.64l-4.9,1.33c-.9-3.92-3.24-6.05-7.7-6.05-4.97,0-7.67,4.32-7.67,8.71,0,5.54,3.24,9.61,8.13,9.61,3.89,0,6.34-2.81,7.27-5.8l4.86.94c-1.33,5.51-5.62,9.39-12.06,9.39-8.03,0-13.17-5.76-13.17-13.46,0-8.6,5-13.86,13.35-13.86,5.54,0,10.44,2.59,11.88,9.18Z" style="fill: #231f20;"/>
      <path d="M127.26,148.14v26.28h-4.86v-12.74h-12.56v12.74h-4.86v-26.28h4.86v9.65h12.56v-9.65h4.86Z" style="fill: #231f20;"/>
      <path d="M160.26,170.13h-8.17l-1.26,4.29h-3.45l5.6-18.4h6.3l5.65,18.4h-3.4l-1.26-4.29ZM152.9,167.39h6.55l-2.55-8.6h-1.44l-2.57,8.6Z" style="fill: #231f20;"/>
      <path d="M204.18,152.57h-14.33v6.77h11.27l-.47,4.18h-10.8v10.91h-4.79v-26.28h19.62l-.5,4.43Z" style="fill: #231f20;"/>
      <path d="M209.76,148.14h12.74c5.51,0,10.26,2.27,10.26,7.42,0,5.44-4.07,6.84-8.6,7.38,1.4,1.4,6.98,9.75,7.92,11.48h-5.9c-1.51-3.78-3.49-7.09-6.95-10.73h-4.68v10.73h-4.79v-26.28ZM214.55,152.32v7.2h7.2c3.31,0,6.59-.43,6.59-3.56,0-2.88-2.02-3.64-6.48-3.64h-7.31Z" style="fill: #231f20;"/>
      <path d="M243.71,148.14v26.28h-4.86v-26.28h4.86Z" style="fill: #231f20;"/>
      <path d="M270.53,174.42h-19.37v-26.28h19.62l-.5,4.43h-14.29v5h11.23l-.47,4.18h-10.76v8.35h15.01l-.47,4.32Z" style="fill: #231f20;"/>
      <path d="M299.94,148.14v26.28h-3.38l-14.97-17.89v17.89h-4.68v-26.28h3.67l14.69,18.03v-18.03h4.68Z" style="fill: #231f20;"/>
      <path d="M307.43,174.42v-26.28h8.53c9.11,0,15.12,5.33,15.12,14.61,0,8.06-5.98,11.66-13.1,11.66h-10.55ZM312.22,170.31h5.33c5.04,0,8.75-2.16,8.75-8.1,0-6.59-5.29-9.86-10.91-9.86h-3.17v17.96Z" style="fill: #231f20;"/>
    </g>
  </g>
</svg>